<svg width="800" height="500" viewBox="0 0 800 500" fill="none" xmlns="http://www.w3.org/2000/svg">
  <rect width="800" height="500" rx="26" fill="#EEF2FF"/>
  <rect x="34" y="28" width="732" height="444" rx="22" fill="#F1F5FF"/>
  <rect x="68" y="52" width="664" height="70" rx="22" fill="#FFFFFF" stroke="#D6DEEC"/>
  <rect x="96" y="76" width="226" height="22" rx="11" fill="#E0E7FF"/>
  <rect x="96" y="106" width="170" height="10" rx="5" fill="#C7D2FE"/>
  <rect x="68" y="148" width="664" height="278" rx="22" fill="none"/>
  <rect x="68" y="148" width="300" height="278" rx="20" fill="#FFFFFF" stroke="#D6DEEC"/>
  <rect x="398" y="148" width="334" height="278" rx="20" fill="#FFFFFF" stroke="#D6DEEC"/>
  <rect x="92" y="172" width="124" height="18" rx="9" fill="#202F45"/>
  <rect x="92" y="204" width="152" height="12" rx="6" fill="#64748B"/>
  <rect x="92" y="232" width="252" height="44" rx="14" fill="#F8FAFC" stroke="#E2E8F0"/>
  <rect x="92" y="288" width="184" height="26" rx="13" fill="#2563EB"/>
  <rect x="92" y="328" width="92" height="18" rx="9" fill="#DBEAFE"/>
  <rect x="422" y="172" width="130" height="18" rx="9" fill="#202F45"/>
  <rect x="422" y="206" width="220" height="122" rx="16" fill="#F8FAFC" stroke="#E2E8F0"/>
  <rect x="444" y="226" width="92" height="14" rx="7" fill="#1E293B"/>
  <rect x="444" y="250" width="164" height="8" rx="4" fill="#94A3B8"/>
  <rect x="444" y="270" width="146" height="8" rx="4" fill="#94A3B8"/>
  <rect x="444" y="298" width="76" height="22" rx="11" fill="#FEE2E2"/>
  <rect x="422" y="346" width="220" height="52" rx="14" fill="#F1F5F9"/>
  <rect x="444" y="364" width="96" height="12" rx="6" fill="#334155"/>
  <rect x="560" y="364" width="62" height="12" rx="6" fill="#94A3B8"/>
</svg>
